@startuml

skinparam backgroundColor #f4f4f9
skinparam componentStyle uml2
skinparam defaultFontSize 45
left to right direction

package "Person Module" {

    package "Data Context" {
        component "PersonCrudRepository" <<repository>> #lightgreen
        component "PersonAuditRepository" <<repository>> #lightgreen
    }

    package "Registration Context" {
        interface PersonRegistrationService #lightyellow
        component PersonRegistrationServiceImpl #lightcoral

        PersonRegistrationServiceImpl ..|> PersonRegistrationService
        PersonRegistrationServiceImpl --> PersonCrudRepository
    }

    package "Update Context" {
        interface PersonUpdateService #lightyellow
        component PersonUpdateServiceImpl #lightcoral

        PersonUpdateServiceImpl ..|> PersonUpdateService
        PersonUpdateServiceImpl --> PersonCrudRepository
        PersonUpdateServiceImpl --> PersonAuditRepository
    }

}

@enduml
